<?xml version="1.0" standalone="no"?>
<!DOCTYPE svg PUBLIC "-//W3C//DTD SVG 20010904//EN"
 "http://www.w3.org/TR/2001/REC-SVG-20010904/DTD/svg10.dtd">
<svg version="1.0" xmlns="http://www.w3.org/2000/svg"
 width="1254.000000pt" height="1254.000000pt" viewBox="0 0 1254.000000 1254.000000"
 preserveAspectRatio="xMidYMid meet">

<g transform="translate(0.000000,1254.000000) scale(0.100000,-0.100000)"
fill="#000000" stroke="none">
<path d="M5550 11909 c-385 -31 -781 -150 -1114 -336 -635 -354 -1096 -950
-1271 -1643 -59 -236 -69 -324 -69 -625 0 -300 7 -363 60 -565 42 -158 91
-286 190 -489 114 -235 128 -279 121 -381 -6 -90 -28 -144 -121 -305 -185
-322 -273 -552 -327 -862 -19 -107 -23 -165 -23 -353 -1 -297 26 -485 105
-740 203 -659 693 -1202 1354 -1498 245 -110 476 -171 850 -227 17 -2 112 -9
213 -15 140 -9 187 -8 198 1 20 16 21 1191 2 1206 -7 6 -85 13 -173 16 -332
11 -631 106 -882 279 -108 76 -270 237 -341 340 -56 81 -124 221 -159 323 -82
238 -75 527 18 763 78 198 151 303 360 517 178 184 225 250 253 361 43 167 10
312 -153 661 -210 453 -274 674 -274 953 0 219 41 396 137 595 187 385 537
650 986 746 150 32 410 32 558 0 278 -61 482 -171 714 -388 49 -46 62 -53 97
-53 50 0 47 -2 441 379 157 152 317 307 357 344 85 82 101 113 82 160 -16 40
-237 261 -344 344 -478 372 -1139 548 -1845 492z"/>
<path d="M6080 9336 c-66 -19 -102 -40 -143 -85 -81 -90 -89 -137 -85 -496 3
-260 4 -282 23 -315 12 -19 36 -43 55 -55 33 -19 55 -20 500 -25 l465 -5 0
-315 0 -315 -380 -6 c-388 -6 -420 -9 -495 -49 -73 -39 -139 -132 -160 -224
-12 -55 -29 -2099 -30 -3546 0 -547 -3 -1050 -7 -1117 l-6 -123 -42 0 c-47 0
-60 10 -69 55 -11 52 -44 95 -89 115 -54 25 -81 25 -135 -1 -174 -85 -149
-461 33 -495 92 -17 154 19 186 106 l22 60 47 0 48 0 6 -92 c4 -51 5 -147 3
-213 -3 -66 -5 -144 -6 -172 l-1 -53 -50 0 -49 0 -12 43 c-27 101 -69 137
-159 137 -115 0 -184 -98 -184 -260 0 -109 44 -198 116 -236 42 -22 113 -18
153 8 34 22 75 88 75 120 0 25 22 35 66 30 l42 -4 7 -99 c10 -143 -4 -419 -22
-426 -7 -3 -29 -2 -48 1 -31 6 -36 12 -50 58 -28 94 -98 139 -186 119 -166
-37 -211 -341 -70 -475 32 -30 103 -45 155 -32 46 11 85 55 102 112 l15 54 50
0 49 0 2 -77 c0 -43 2 -159 3 -258 0 -107 6 -202 14 -235 40 -171 158 -300
321 -351 96 -31 300 -38 406 -14 145 32 236 91 306 199 72 112 80 155 86 464
l4 273 50 -3 c50 -3 50 -3 66 -51 32 -90 90 -127 184 -114 29 4 52 16 79 43
54 53 74 110 74 214 0 73 -4 93 -28 142 -16 32 -42 67 -58 79 -100 71 -220 27
-250 -91 -14 -54 -29 -65 -85 -58 l-29 3 -3 263 -2 262 54 0 c53 0 54 -1 60
-32 15 -78 79 -138 149 -138 145 0 231 167 182 355 -28 106 -86 155 -184 155
-44 0 -56 -5 -87 -33 -22 -20 -42 -52 -54 -87 l-19 -55 -48 0 -48 0 0 260 0
260 51 3 50 3 17 -55 c28 -88 85 -125 174 -112 58 8 96 38 130 106 24 48 28
66 28 145 0 108 -21 170 -70 214 -101 88 -218 53 -264 -80 l-19 -54 -49 0 -48
0 3 1215 c1 668 2 1556 2 1973 l0 758 25 24 24 25 393 0 c429 0 611 -13 733
-51 279 -86 441 -291 475 -603 19 -165 -10 -331 -84 -481 -102 -206 -290 -344
-541 -396 -103 -21 -424 -39 -721 -39 -134 0 -194 -4 -202 -12 -14 -14 -18
-1133 -4 -1142 18 -11 791 70 995 104 295 50 502 113 712 218 207 103 318 182
474 335 273 269 437 604 498 1015 23 161 23 447 0 612 -105 744 -620 1286
-1362 1436 -66 13 -150 27 -187 31 -38 3 -72 11 -78 18 -6 7 -11 289 -12 756
l-3 744 -25 50 c-19 38 -35 55 -70 73 l-44 22 -921 -1 c-702 -1 -931 -4 -965
-13z m68 -7599 c2 -1283 1 -1337 -16 -1337 -10 0 -23 5 -30 12 -9 9 -12 319
-12 1333 0 727 3 1325 7 1329 4 4 16 6 28 4 l20 -3 3 -1338z m270 -24 l2
-1363 -30 0 -30 0 0 1358 c0 747 3 1362 7 1366 4 4 16 6 28 4 l20 -3 3 -1362z
m267 33 c0 -1247 -1 -1329 -17 -1340 -12 -7 -21 -7 -28 0 -12 12 -17 2644 -5
2664 4 6 17 10 28 8 l22 -3 0 -1329z"/>
<path d="M4480 7118 c-222 -259 -319 -589 -265 -904 21 -120 48 -200 108 -318
126 -247 315 -427 592 -561 140 -68 261 -105 458 -140 61 -10 36 9 -50 40
-199 70 -402 204 -563 371 -207 216 -319 431 -370 716 -45 251 -9 513 105 763
18 41 31 75 27 75 -4 -1 -23 -19 -42 -42z"/>
</g>
</svg>
